<svg width="181" height="60" viewBox="0 0 181 60" fill="none" xmlns="http://www.w3.org/2000/svg">
<path d="M73.7683 22.669H77.8412C78.0266 24.318 79.0995 25.0002 81.0399 25.0002C82.3644 25.0002 83.669 24.5167 83.669 23.2849C83.669 21.9803 82.3445 21.7088 80.0995 21.1591C77.265 20.4968 74.265 19.6293 74.265 16.1988C74.265 12.7684 77.0995 11.1657 80.7617 11.1657C84.424 11.1657 87.0531 12.7684 87.2121 16.1988H83.2584C83.0995 14.9406 82.1392 14.2319 80.6293 14.2319C79.2121 14.2319 78.2717 14.8478 78.2717 15.7617C78.2717 16.9074 79.5299 17.179 81.9736 17.7286C85.0134 18.4372 87.7617 19.3776 87.7617 22.8743C87.7617 26.371 84.8346 28.2055 81.0597 28.2055C76.7154 28.2055 73.8544 26.2849 73.7617 22.669H73.7683ZM76.5829 7.80811H79.7154L80.7419 9.03989H80.7882L81.8147 7.80811H85.0134L82.5895 10.669H79.0001L76.5763 7.80811H76.5829Z" fill="#000099"/>
<path d="M87.7617 16.1062H91.6028L93.2054 21.391C93.5498 22.5565 93.8478 23.7486 93.8478 23.7486H93.8942C93.8942 23.7486 94.1922 22.5565 94.5366 21.391L96.1591 16.1062H99.8875L95.8412 27.8148H91.8147L87.7683 16.1062H87.7617Z" fill="#000099"/>
<path d="M99.7215 21.9339C99.7215 18.4372 102.165 15.7617 105.735 15.7617C107.404 15.7617 108.728 16.3114 109.735 17.2253C111.132 18.5034 111.814 20.5432 111.794 22.9207H103.377C103.609 24.4968 104.476 25.4836 106.006 25.4836C106.986 25.4836 107.629 25.0465 107.947 24.318H111.582C111.331 25.371 110.642 26.3776 109.616 27.0862C108.635 27.775 107.443 28.1591 105.96 28.1591C102.092 28.1591 99.7148 25.4836 99.7148 21.9405L99.7215 21.9339ZM108.019 20.7021C107.88 19.3048 107.013 18.4173 105.801 18.4173C104.384 18.4173 103.649 19.3114 103.404 20.7021H108.019Z" fill="#000099"/>
<path d="M111.093 31.5632V28.9804C112.397 28.9804 113.059 28.9804 113.059 27.7221V16.1063H116.788V27.9076C116.788 29.4639 116.444 30.2652 115.894 30.8347C115.232 31.497 114.318 31.7486 113.192 31.7486C112.55 31.7486 111.662 31.6824 111.086 31.5632H111.093ZM113.059 11.4639H116.788V14.4837H113.059V11.4639Z" fill="#000099"/>
<path d="M118.039 21.9606C118.039 18.3049 120.145 15.7619 123.158 15.7619C124.807 15.7619 125.741 16.4506 126.43 17.4308H126.496V11.4639H130.224V27.8149H126.655V26.2387H126.609C125.9 27.4506 124.688 28.1857 123.158 28.1857C120.165 28.1857 118.039 25.8745 118.039 21.9672V21.9606ZM126.589 21.9606C126.589 19.9937 125.787 18.5765 124.165 18.5765C122.681 18.5765 121.807 19.9473 121.807 21.9142C121.807 23.8811 122.675 25.2321 124.119 25.2321C125.675 25.2321 126.589 23.8811 126.589 21.9606Z" fill="#000099"/>
<path d="M131.466 24.5433C131.466 21.9605 133.526 21.1791 135.95 20.8612C138.142 20.5897 138.923 20.3579 138.923 19.5566C138.923 18.8016 138.44 18.2983 137.321 18.2983C136.135 18.2983 135.539 18.8215 135.42 19.8082H131.99C132.082 17.636 133.751 15.7817 137.294 15.7817C139.056 15.7817 140.241 16.0996 141.089 16.742C142.096 17.4705 142.572 18.6162 142.572 20.0798V25.9804C142.572 26.9208 142.665 27.444 142.983 27.6493V27.8082H139.367C139.182 27.5566 139.069 27.0996 138.976 26.5036H138.93C138.241 27.4837 137.215 28.1062 135.453 28.1062C133.122 28.1062 131.453 26.848 131.453 24.5367L131.466 24.5433ZM139.016 23.6294V22.2321C138.533 22.4837 137.85 22.6692 137.096 22.848C135.652 23.1658 135.062 23.5367 135.062 24.4241C135.062 25.3645 135.751 25.7288 136.665 25.7288C138.062 25.7288 139.023 24.8811 139.023 23.6228L139.016 23.6294Z" fill="#000099"/>
<path d="M76.0983 48.7618C74.6811 47.2055 73.9062 45.0598 73.9062 42.5631C73.9062 40.0664 74.7738 37.7353 76.3301 36.1856C77.6811 34.8148 79.5751 34.0134 81.9327 34.0134C86.138 34.0134 88.6546 36.2518 89.1844 39.6823H85.2506C84.9526 38.3578 83.8533 37.3512 82.0718 37.3512C79.3698 37.3512 78.0255 39.5896 78.0255 42.5631C78.0255 45.5366 79.5817 47.775 82.1447 47.775C84.2705 47.775 85.5288 46.3578 85.6877 44.9141V44.8677H82.6215V41.8942H89.4361V50.6757H86.6016L86.3698 48.7088H86.3235C85.2506 50.3777 83.648 51.0399 81.6811 51.0399C79.35 51.0399 77.4493 50.2187 76.0983 48.7551V48.7618Z" fill="#000099"/>
<path d="M90.6445 44.8544C90.6445 41.3313 93.1611 38.6558 96.9094 38.6558C100.658 38.6558 103.154 41.3313 103.154 44.8544C103.154 48.3776 100.684 51.0531 96.9094 51.0531C93.1346 51.0531 90.6445 48.3776 90.6445 44.8544ZM99.3796 44.8544C99.3796 42.7286 98.5121 41.2849 96.8896 41.2849C95.2671 41.2849 94.4194 42.7286 94.4194 44.8544C94.4194 46.9803 95.2671 48.3975 96.8896 48.3975C98.5121 48.3975 99.3796 46.9803 99.3796 44.8544Z" fill="#000099"/>
<path d="M104.438 34.3313H108.212V50.6823H104.438V34.3313Z" fill="#000099"/>
<path d="M109.492 44.828C109.492 41.1724 111.598 38.6293 114.611 38.6293C116.26 38.6293 117.194 39.3181 117.883 40.2982H117.949V34.3313H121.678V50.6823H118.108V49.1061H118.062C117.353 50.3181 116.141 51.0532 114.611 51.0532C111.618 51.0532 109.492 48.7419 109.492 44.8346V44.828ZM118.042 44.828C118.042 42.8611 117.241 41.4439 115.618 41.4439C114.135 41.4439 113.26 42.8147 113.26 44.7816C113.26 46.7485 114.128 48.0995 115.572 48.0995C117.128 48.0995 118.042 46.7485 118.042 44.828Z" fill="#000099"/>
<path d="M123.466 38.9738H127.036V40.6426H127.102C127.837 39.4307 128.956 38.6294 130.645 38.6294C132.175 38.6294 133.341 39.4307 133.937 40.689H133.983C134.897 39.2718 136.155 38.6294 137.665 38.6294C140.321 38.6294 141.645 40.4373 141.645 43.0665V50.6824H137.917V43.7287C137.917 42.4705 137.394 41.742 136.268 41.742C135.082 41.742 134.413 42.7221 134.413 44.1195V50.6824H130.685V43.7287C130.685 42.4705 130.162 41.742 129.036 41.742C127.91 41.742 127.182 42.7221 127.182 44.1195V50.6824H123.453V38.9738H123.466Z" fill="#000099"/>
<path d="M142.791 47.4108C142.791 44.828 144.85 44.0465 147.274 43.7286C149.466 43.4571 150.248 43.2253 150.248 42.424C150.248 41.669 149.764 41.1657 148.645 41.1657C147.459 41.1657 146.863 41.6889 146.744 42.6757H143.314C143.406 40.5035 145.075 38.6492 148.618 38.6492C150.38 38.6492 151.565 38.9671 152.413 39.6094C153.42 40.3379 153.897 41.4836 153.897 42.9472V48.8478C153.897 49.7882 153.989 50.3114 154.307 50.5167V50.6757H150.691C150.506 50.424 150.393 49.9671 150.301 49.371H150.254C149.565 50.3512 148.539 50.9737 146.777 50.9737C144.446 50.9737 142.777 49.7154 142.777 47.4041L142.791 47.4108ZM150.34 46.4969V45.0995C149.857 45.3512 149.175 45.5366 148.42 45.7154C146.976 46.0333 146.387 46.4041 146.387 47.2916C146.387 48.232 147.075 48.5962 147.989 48.5962C149.387 48.5962 150.347 47.7485 150.347 46.4902L150.34 46.4969Z" fill="#000099"/>
<path d="M155.711 38.9738H159.3V40.5764H159.367C160.234 39.3181 161.353 38.6294 162.982 38.6294C165.545 38.6294 167.055 40.4572 167.055 43.0665V50.6824H163.327V43.8214C163.327 42.5897 162.711 41.742 161.499 41.742C160.287 41.742 159.439 42.7685 159.439 44.2122V50.6824H155.711V38.9738Z" fill="#000099"/>
<path d="M168.742 38.9738H172.332V40.5764H172.398C173.265 39.3181 174.385 38.6294 176.014 38.6294C178.577 38.6294 180.087 40.4572 180.087 43.0665V50.6824H176.358V43.8214C176.358 42.5897 175.742 41.742 174.53 41.742C173.318 41.742 172.471 42.7685 172.471 44.2122V50.6824H168.742V38.9738Z" fill="#000099"/>
<path d="M60 0H0V60H60V0Z" fill="#66FFDE"/>
<path fill-rule="evenodd" clip-rule="evenodd" d="M46.8275 13.1721H13.1719V33.3642H26.6355V26.6357H19.907V19.9072H46.8341V13.1787L46.8275 13.1721ZM46.8275 46.8277H13.1719V40.0993H40.099V33.3708H33.3705V26.6423H46.8341V46.8344L46.8275 46.8277Z" fill="#000099"/>
</svg>
